PathFileType	4	(X/Y/Z)	C:\Github\BTS_project\Data\sports2d_results\Single_Hop4 Exam_2026-03-06_123833_tvc2_Sports2D\Single_Hop4 Exam_2026-03-06_123833_tvc2_Sports2D_m_person00.trc
DataRate	CameraRate	NumFrames	NumMarkers	Units	OrigDataRate	OrigDataStartFrame	OrigNumFrames
30.0	30.0	11	22	m	30.0	69	278
Frame#	Time	Hip			RHip			RKnee			RAnkle			RBigToe			RSmallToe			RHeel			LHip			LKnee			LAnkle			LBigToe			LSmallToe			LHeel			Neck			Head			Nose			RShoulder			RElbow			RWrist			LShoulder			LElbow			LWrist			
		X1	Y1	Z1	X2	Y2	Z2	X3	Y3	Z3	X4	Y4	Z4	X5	Y5	Z5	X6	Y6	Z6	X7	Y7	Z7	X8	Y8	Z8	X9	Y9	Z9	X10	Y10	Z10	X11	Y11	Z11	X12	Y12	Z12	X13	Y13	Z13	X14	Y14	Z14	X15	Y15	Z15	X16	Y16	Z16	X17	Y17	Z17	X18	Y18	Z18	X19	Y19	Z19	X20	Y20	Z20	X21	Y21	Z21	X22	Y22	Z22
69	2.3083032490974733	1.2746484683746468	0.7444720419079363	0.0301	1.1870339935360923	0.6828004894796885	0.0301	1.384499213494129	0.359472776273331	0.129	1.5572446714613135	0.19524879991649596	0.023	1.639851654173396	0.06893571379144571	0.2179	1.58294795195537	0.05685787822710933	0.1804	1.5861345791504897	0.19797846149483933	-0.0119	1.3771538998718797	0.8061043792399035	0.0301	1.626851962495821	0.4776493663560541	0.129	1.8227761104256228	0.16916264068543527	0.023	1.8834218206696336	0.06503445415462974	0.2179	1.9315026019686565	0.11530310115493941	0.1804	1.8330930692445677	0.10856957137654327	-0.0119	0.9673220313372338	1.2428751956249142	0.0008	0.8391374626772098	1.4662981300966282	0.0655	0.932710198568256	1.3291008480505142	0.1076	0.8113201260755346	1.091151240748438	-0.01275	0.7937642665038547	0.8506437506967525	0.0702	0.9942369246918019	0.7080070791088559	0.1076	1.1547204380961573	1.3218894028853259	-0.01275	1.4024986700515691	1.2694664844130013	0.0702	1.4227605703873991	1.038831941008799	0.1076
70	2.3417569193742485	1.276236759306558	0.744871139568917	0.0301	1.1886032225845065	0.6794346443696179	0.0301	1.3858291962954394	0.3581004379003285	0.129	1.5574483361903648	0.19543654470062338	0.023	1.636785329573774	0.06903770990794864	0.2179	1.5800489868025813	0.05823992018385761	0.1804	1.5869351019890856	0.19774910771307294	-0.0119	1.3801012798603973	0.8033897326828378	0.0301	1.627093404450875	0.47845654173486213	0.129	1.8220536379996979	0.16820375253712122	0.023	1.882338986245792	0.06442976136341241	0.2179	1.9308760400530682	0.11467145602946759	0.1804	1.8321943759025674	0.10812378733265218	-0.0119	0.9699917935770886	1.2427414154853067	0.0008	0.8436601067131748	1.4675148067724773	0.0655	0.9343712416479032	1.3313959993334117	0.1076	0.8146115995360003	1.0941760399105123	-0.01275	0.7950817312922173	0.8517901981071605	0.0702	0.9950426290810722	0.7101916923406834	0.1076	1.1577673082297315	1.322467920311625	-0.01275	1.4032975636755958	1.2709448178644334	0.0702	1.423568433186303	1.0384694717135114	0.1076
71	2.375210589651023	1.2784689373474132	0.7462117796282405	0.0301	1.188925047626599	0.6779297227999658	0.0301	1.3855357621144582	0.3583504862791654	0.129	1.5576046906476109	0.19577917478752058	0.023	1.6347213448586844	0.06932606249853898	0.2179	1.5795520447710572	0.05963347529822148	0.1804	1.5870883154716566	0.1990571747800724	-0.0119	1.3814233984781805	0.8027299903129175	0.0301	1.626902820710672	0.47855464775227435	0.129	1.8218885163183187	0.1672809182818042	0.023	1.8823553809276041	0.0643925242528534	0.2179	1.931347157752594	0.11349191719829553	0.1804	1.8317815414657748	0.10788647568929732	-0.0119	0.9740046213050761	1.2434047693759336	0.0008	0.8481312866044922	1.46934074024209	0.0655	0.9383935570773625	1.332684296427011	0.1076	0.818048463598395	1.097590704220666	-0.01275	0.7958434596763077	0.8518173261771408	0.0702	0.9961148177042359	0.711750094997886	0.1076	1.1587183183792276	1.3232347222875476	-0.01275	1.402574388295708	1.2721568898789508	0.0702	1.4240835411619692	1.0389245535515048	0.1076
72	2.4086642599277983	1.2795674024481243	0.7471001035646665	0.0301	1.1903417034926176	0.6764295866878186	0.0301	1.3845566993074137	0.3587069665052482	0.129	1.556591176210561	0.19743092389269282	0.023	1.6335099986406767	0.0707930250476508	0.2179	1.5803340461174502	0.06118468819896182	0.1804	1.5862160639722882	0.20101999755951733	-0.0119	1.3807983943335487	0.8018890607561767	0.0301	1.6258824007967474	0.47737331172533337	0.129	1.8220550197438805	0.16629929238638472	0.023	1.8841906831409856	0.0643028778054368	0.2179	1.9329766400561852	0.11176032092688835	0.1804	1.8321732564995699	0.10755540495926538	-0.0119	0.9772454783127097	1.2455427908325132	0.0008	0.850068376880274	1.4718080438726193	0.0655	0.9433085054536297	1.3325025389244716	0.1076	0.8194209178958819	1.0990210782860192	-0.01275	0.7959529847975073	0.8516295178998632	0.0702	0.9955847365686358	0.7131038626736346	0.1076	1.1598238373009964	1.3243070389183311	-0.01275	1.4028081436467783	1.271021715833562	0.0702	1.4249580521448286	1.0399438281124083	0.1076
73	2.442117930204573	1.279281896054911	0.7468061728540935	0.0301	1.19366600168706	0.6738983110617158	0.0301	1.385070521225885	0.3574288483806146	0.129	1.555222914196305	0.2001906204512813	0.023	1.6328537130782899	0.07253402546783078	0.2179	1.5794923923570088	0.06267824853061622	0.1804	1.5851068395583292	0.20140260863290546	-0.0119	1.3794442389023935	0.8008227876664992	0.0301	1.6249757747311009	0.4760857599489021	0.129	1.8219313049221968	0.16536933857121386	0.023	1.8857468503734467	0.06349500906730424	0.2179	1.9346232660660394	0.10994629222490629	0.1804	1.8332511769013364	0.10727112891326411	-0.0119	0.9784972462470902	1.2470603724890197	0.0008	0.8502621946672122	1.4729189612680438	0.0655	0.9455986361974704	1.3324886716039888	0.1076	0.8190169377336468	1.0988184650324617	-0.01275	0.7957604121992278	0.8517499154515897	0.0702	0.9948107377502534	0.7145059900151043	0.1076	1.1616449434717093	1.325230732455125	-0.01275	1.4043457175184662	1.268676719064855	0.0702	1.4262430176009226	1.0407554255233258	0.1076
74	2.475571600481348	1.2793489316405502	0.7461450504957028	0.0301	1.1959804100026734	0.6729157521878173	0.0301	1.3874755949497357	0.3552547096683806	0.129	1.5557481226250078	0.20338257496918696	0.023	1.6330619159621993	0.07404116481136494	0.2179	1.5771705447430058	0.064160299258853	0.1804	1.584947987600051	0.2026841594011501	-0.0119	1.3790142018221954	0.8015050504687082	0.0301	1.625553872580203	0.47597566518437945	0.129	1.8215619918995352	0.16469166558782136	0.023	1.8847386877943713	0.06340438559413356	0.2179	1.9355051255381932	0.10898856066209611	0.1804	1.8340551493976809	0.10695717595961005	-0.0119	0.9787052764819343	1.2462559192975484	0.0008	0.8521136829786029	1.4708708974750246	0.0655	0.9454014306518335	1.3330702540116182	0.1076	0.818789785099299	1.0993043136436793	-0.01275	0.795834435016251	0.852130881709365	0.0702	0.9972533105462086	0.7144017124337424	0.1076	1.1627981932017102	1.3253889396601284	-0.01275	1.405819791731137	1.2677384480595237	0.0702	1.4277563497399401	1.0410131153957414	0.1076
75	2.5090252707581233	1.2804433532357617	0.7457027065800724	0.0301	1.1954722295483227	0.674370521526762	0.0301	1.389858082478383	0.35381481889729355	0.129	1.558131743822334	0.206555419766069	0.023	1.634021799692869	0.07608391822564116	0.2179	1.5759129129431515	0.06577669035359558	0.1804	1.58572536157169	0.2079075519548218	-0.0119	1.3802141613159054	0.8023622526821832	0.0301	1.6271316767078206	0.47649593944338253	0.129	1.8215460983226426	0.1643736520929673	0.023	1.8823123686167968	0.06487320297606101	0.2179	1.9357175883101743	0.10899641484228584	0.1804	1.8339901331810706	0.10636740011388285	-0.0119	0.9789924909901547	1.2446751371921077	0.0008	0.8560045602173558	1.467290991775683	0.0655	0.9452017511451822	1.3332604363267484	0.1076	0.8191642444763594	1.1001726430343228	-0.01275	0.7964029545103164	0.8530281494801353	0.0702	1.0021190117759275	0.7128815685445836	0.1076	1.1629305136620793	1.324916624515419	-0.01275	1.4066509498433515	1.268717308534246	0.0702	1.4294641682696427	1.0407067277044508	0.1076
76	2.542478941034898	1.2813284933668165	0.7452472672552302	0.0301	1.1948618128099762	0.6746120770841237	0.0301	1.3907308171638804	0.35324892791822043	0.129	1.5592767098944338	0.20939872203283863	0.023	1.6350428805025299	0.07890353902656944	0.2179	1.5765778216686142	0.06739158554382085	0.1804	1.5861412346024466	0.2137649135432191	-0.0119	1.3828234944016151	0.8001140474658165	0.0301	1.6281645520602561	0.4761868336068673	0.129	1.8220765677288004	0.1645416151954295	0.023	1.8812027741046775	0.06605331725047654	0.2179	1.9355547865181397	0.10919635901856646	0.1804	1.8339699245430294	0.10566603303997066	-0.0119	0.9790342409268272	1.2442522707561563	0.0008	0.8579926176081917	1.4663253191421286	0.0655	0.9459484096132109	1.3330011448488155	0.1076	0.8192157857704111	1.0998743254710017	-0.01275	0.7969918720925159	0.8546388932584728	0.0702	1.0050221286578283	0.712176003909967	0.1076	1.163373253961639	1.3245012665323117	-0.01275	1.4068804185929806	1.2698407242673915	0.0702	1.4310575624719353	1.0403344938257755	0.1076
77	2.575932611311673	1.281421429246601	0.7449294296075264	0.0301	1.1962042975011693	0.672557853289016	0.0301	1.390428093010186	0.35307033730573234	0.129	1.558096314711108	0.211598374650235	0.023	1.635552402404356	0.08187161591241367	0.2179	1.5777436095926698	0.06929030274363333	0.1804	1.5860479829649214	0.2152221736629352	-0.0119	1.3856857044251785	0.7964241171817604	0.0301	1.6284203407148088	0.47499243940286534	0.129	1.822664547288564	0.16510720165121676	0.023	1.8816860088850336	0.06544753609768708	0.2179	1.9348189705877097	0.10911814994559284	0.1804	1.8344319769895339	0.10491169931791886	-0.0119	0.9785368338968222	1.2444688672987159	0.0008	0.8558571398176	1.468933476771923	0.0655	0.9463865822817068	1.3333080436372555	0.1076	0.8189922729192602	1.0995913178924506	-0.01275	0.796578229961766	0.8557207457393075	0.0702	1.0048100058636733	0.7129488308890055	0.1076	1.1643623192114394	1.3244056807629823	-0.01275	1.4068722829278997	1.2701212783003148	0.0702	1.4319178081717858	1.0405833653208256	0.1076
78	2.6093862815884483	1.2815961789606294	0.7452696036872033	0.0301	1.1975120833815769	0.6725911434835349	0.0301	1.3902802456073249	0.3533923075442353	0.129	1.557280543073414	0.21330299873708458	0.023	1.6355278181569	0.08458115266969751	0.2179	1.5785709934789316	0.07211442517539676	0.1804	1.5866570509432119	0.2132037962922769	-0.0119	1.3872630454731525	0.7956410311026533	0.0301	1.6285571132502443	0.4743674818242222	0.129	1.8228831624275952	0.16556095940613832	0.023	1.8822492828317503	0.06459448196687276	0.2179	1.9340034381953448	0.10939552949064274	0.1804	1.8338450531026629	0.10384766603973962	-0.0119	0.9785018275162367	1.2440638134327815	0.0008	0.8529615361884725	1.470631612010853	0.0655	0.9456684404098775	1.334043408068779	0.1076	0.8193642723307122	1.101255252276186	-0.01275	0.7949300113067634	0.8552593387841579	0.0702	1.0041114149819081	0.713830823382558	0.1076	1.1643107005011473	1.3243368436642806	-0.01275	1.4075419848037052	1.2705370552664994	0.0702	1.4324616796755723	1.0417630328318612	0.1076
79	2.642839951865223	1.2827181087078217	0.7463096341804446	0.0301	1.1976941578965443	0.6760750470793343	0.0301	1.391177481266563	0.35417676857684993	0.129	1.558450790041738	0.2150114467074385	0.023	1.6354823626315627	0.08658584028414015	0.2179	1.5795273149183613	0.07511153786752366	0.1804	1.5877959858420196	0.21208551912763415	-0.0119	1.388259470180685	0.7976012231393368	0.0301	1.6290984288995594	0.4749153910609872	0.129	1.8232252619808609	0.1651847743036497	0.023	1.8824883889063708	0.06527136128000294	0.2179	1.934877269202928	0.11063631539814338	0.1804	1.8321666092190203	0.10278491564488326	-0.0119	0.9791203031211112	1.2434099789639548	0.0008	0.8533712406072312	1.468236695111688	0.0655	0.9453943711000632	1.3336657912093242	0.1076	0.8203587727493468	1.1040635287635867	-0.01275	0.7936903038188894	0.8544267516688442	0.0702	1.0043042568504346	0.7139888494478098	0.1076	1.1624834935215327	1.3241684490599448	-0.01275	1.4089038304599537	1.2716739304249556	0.0702	1.4341253969064856	1.0436286226697418	0.1076
